<svg width="64" height="64" viewBox="0 0 64 64" fill="none" xmlns="http://www.w3.org/2000/svg">
<path d="M34.6767 3.11906C50.2554 3.33159 62.7123 16.133 62.4997 31.7117C62.3153 45.234 52.6461 56.4037 39.9087 58.9781C27.3345 63.87 12.6955 59.1453 5.51976 47.1851C-2.49586 33.8251 1.83676 16.4966 15.1968 8.481C22.3138 4.21105 29.6702 3.05077 34.6767 3.11906ZM33.9071 59.5348C34.0024 59.5361 34.0963 59.5365 34.1885 59.5367C34.0948 59.5364 34.001 59.5361 33.9071 59.5348ZM44.0081 56.9896C44.0798 56.9478 44.1517 56.9053 44.2239 56.862C44.1522 56.905 44.0801 56.9473 44.0081 56.9896Z" fill="#DDCB2C"/>
<path d="M29.6958 42.3726L29.8021 44.3086C29.8021 44.4147 29.7932 44.6092 29.7755 44.8921C29.7755 45.175 29.6693 45.4313 29.4569 45.6612C29.2621 45.8734 29.0143 45.9794 28.7133 45.9794C28.4301 45.9794 28.2088 45.9706 28.0495 45.9529C27.4653 45.9529 27.1732 45.6966 27.1732 45.1838C27.1732 44.7595 27.3679 43.0533 27.7574 40.0652C28.1469 37.0595 28.3947 35.1234 28.5009 34.2571C28.6071 33.3907 28.6956 32.6658 28.7665 32.0823C28.855 31.4812 28.9169 31.0391 28.9523 30.7562C28.9877 30.4734 29.0408 30.1905 29.1117 29.9076C29.1825 29.6247 29.2887 29.3948 29.4303 29.218C29.6958 28.8821 30.2092 28.7141 30.9704 28.7141C32.245 29.3506 33.555 31.1541 34.9004 34.1244C35.8564 36.2461 36.4937 37.5899 36.8123 38.1557C37.1309 38.7215 37.4407 39.1104 37.7417 39.3226L43.0525 30.0932C43.4242 29.828 43.7075 29.6954 43.9022 29.6954C44.4687 29.6954 44.9024 29.9518 45.2033 30.4645C45.5043 30.9773 45.7521 31.6049 45.9469 32.3475C46.1593 33.0724 46.3363 33.8769 46.4779 34.761C46.6373 35.645 46.77 36.5732 46.8762 37.5457C47.0002 38.5005 47.1152 39.4375 47.2214 40.3569C47.4693 42.567 47.6552 43.955 47.7791 44.5208C47.9207 45.0866 47.9915 45.4932 47.9915 45.7408C47.9915 45.9706 47.9119 46.2005 47.7525 46.4303C47.5932 46.6425 47.3719 46.7486 47.0887 46.7486C46.8054 46.7486 46.5222 46.6425 46.239 46.4303C45.9557 46.2005 45.7787 45.9264 45.7079 45.6082C45.6548 45.2722 45.5928 44.839 45.522 44.3086C45.4689 43.7782 45.3981 43.1859 45.3096 42.5317C45.2211 41.8598 45.1325 41.1614 45.044 40.4365C44.9555 39.6939 44.867 38.9867 44.7785 38.3148C44.69 37.6429 44.6103 37.0506 44.5395 36.5379C44.4687 36.0075 44.4156 35.6096 44.3802 35.3444C44.3802 34.9908 44.3713 34.6637 44.3536 34.3631C44.3359 34.0626 44.2651 33.8769 44.1412 33.8062C44.0173 33.7355 43.8225 33.8239 43.557 34.0714C43.3092 34.3013 42.9551 34.7786 42.4948 35.5036C41.5035 37.0418 40.0696 39.632 38.1931 43.2743C37.9453 43.7163 37.6178 43.8135 37.2106 43.566C36.7326 43.3008 36.3255 42.6201 35.9891 41.5239L31.1032 31.1541C30.6783 32.0027 30.2889 34.814 29.9348 39.5878C29.8817 40.1713 29.8463 40.6664 29.8286 41.073C29.7401 41.515 29.6958 41.9482 29.6958 42.3726Z" fill="#1E1E1E"/>
<path d="M17.8076 41.8373L16.0085 41.7575V32.458C16.1418 30.4624 16.2484 28.693 16.3284 27.1497C16.4083 25.6064 16.5549 24.276 16.7681 23.1585C16.9814 22.041 17.3278 21.1097 17.8076 20.3647C18.2873 19.593 19.0069 18.981 19.9664 18.5287C21.6988 17.6773 24.8838 17.2515 29.5213 17.2515C31.5202 17.2515 33.2127 17.4511 34.5986 17.8502C35.9845 18.2227 37.0106 18.5819 37.677 18.9278C39.1961 19.6729 39.9557 20.7106 39.9557 22.041C39.9557 23.3714 39.5693 24.582 38.7964 25.673C38.0501 26.7373 37.0639 27.6686 35.8379 28.4668C34.6386 29.2384 33.2793 29.877 31.7601 30.3826C30.2409 30.8881 28.7217 31.3005 27.2026 31.6198C24.484 32.152 21.8721 32.4181 19.3667 32.4181L19.2068 41.3584C19.2068 41.6777 18.7404 41.8373 17.8076 41.8373ZM19.3268 27.908C19.3268 29.2384 19.8998 29.9036 21.0459 29.9036C21.2058 29.9036 21.4856 29.9036 21.8854 29.9036C22.2852 29.877 22.9781 29.8371 23.9643 29.7839C24.9771 29.7041 26.0432 29.571 27.1626 29.3848C28.282 29.1719 29.4014 28.9058 30.5208 28.5865C31.6668 28.2672 32.693 27.8681 33.5991 27.3892C35.6514 26.2716 36.6775 24.8481 36.6775 23.1186C36.2777 21.3891 34.6919 20.2848 31.92 19.8059C31.0938 19.6462 30.3475 19.5664 29.6812 19.5664C29.0416 19.5664 28.2687 19.6063 27.3625 19.6862C26.4829 19.7394 25.4568 19.9389 24.2841 20.2848C23.1114 20.6307 22.1253 21.0964 21.3257 21.6818C20.5261 22.2671 20.0864 22.9456 20.0064 23.7173C19.9798 24.0366 19.9131 24.4091 19.8065 24.8348C19.4867 26.1918 19.3268 27.2162 19.3268 27.908Z" fill="#1E1E1E"/>
</svg>
