<svg width="64" height="64" viewBox="0 0 64 64" fill="none" xmlns="http://www.w3.org/2000/svg">
<path d="M29.3235 3.62566C13.7447 3.83447 1.28786 16.4113 1.50038 31.7167C1.68486 45.0017 11.3541 55.9755 24.0914 58.5047C36.6656 63.3108 51.3046 58.669 58.4804 46.9186C66.496 33.793 62.1634 16.7686 48.8033 8.89353C41.6864 4.69849 34.3299 3.55857 29.3235 3.62566ZM30.0931 59.0517C29.9977 59.053 29.9038 59.0534 29.8116 59.0536C29.9053 59.0532 29.9991 59.0529 30.0931 59.0517ZM19.992 56.5511C19.9204 56.5101 19.8484 56.4683 19.7762 56.4257C19.848 56.468 19.9201 56.5095 19.992 56.5511Z" fill="#DDCB2C"/>
<path d="M43.9925 38.1046L43.8329 40.9671C43.8329 41.124 43.8462 41.4115 43.8728 41.8298C43.8728 42.248 44.0324 42.6271 44.3517 42.9669C44.6444 43.2806 45.0169 43.4375 45.4693 43.4375C45.895 43.4375 46.2276 43.4244 46.4671 43.3983C47.3451 43.3983 47.7842 43.0192 47.7842 42.2611C47.7842 41.6337 47.4915 39.1111 46.9061 34.6932C46.3207 30.2491 45.9482 27.3867 45.7886 26.1057C45.6289 24.8248 45.4959 23.753 45.3894 22.8903C45.2564 22.0015 45.1633 21.348 45.1101 20.9297C45.0568 20.5115 44.977 20.0932 44.8706 19.6749C44.7641 19.2567 44.6045 18.9168 44.3916 18.6554C43.9925 18.1587 43.2209 17.9104 42.0767 17.9104C40.1609 18.8515 38.1919 21.5179 36.1697 25.9097C34.7328 29.0466 33.775 31.0334 33.296 31.8699C32.8171 32.7064 32.3514 33.2815 31.8991 33.5952L23.9166 19.9494C23.3578 19.5573 22.9321 19.3612 22.6394 19.3612C21.788 19.3612 21.136 19.7403 20.6837 20.4984C20.2314 21.2565 19.8589 22.1845 19.5662 23.2825C19.2469 24.3543 18.9808 25.5437 18.7679 26.8508C18.5284 28.1578 18.3289 29.5303 18.1692 30.968C17.983 32.3797 17.81 33.7652 17.6504 35.1245C17.2779 38.3922 16.9985 40.4443 16.8122 41.2808C16.5993 42.1173 16.4929 42.7186 16.4929 43.0846C16.4929 43.4244 16.6127 43.7643 16.8521 44.1041C17.0916 44.4178 17.4242 44.5746 17.8499 44.5746C18.2757 44.5746 18.7014 44.4178 19.1271 44.1041C19.5529 43.7643 19.8189 43.3591 19.9254 42.8885C20.0052 42.3918 20.0983 41.7514 20.2048 40.9671C20.2846 40.1829 20.391 39.3071 20.5241 38.3399C20.6571 37.3465 20.7901 36.314 20.9232 35.2422C21.0562 34.1442 21.1893 33.0986 21.3223 32.1052C21.4553 31.1118 21.5751 30.2361 21.6815 29.478C21.788 28.6937 21.8678 28.1055 21.921 27.7134C21.921 27.1906 21.9343 26.707 21.9609 26.2626C21.9875 25.8182 22.0939 25.5437 22.2802 25.4391C22.4665 25.3346 22.7592 25.4653 23.1583 25.8312C23.5308 26.1711 24.063 26.8769 24.7548 27.9487C26.2448 30.223 28.4001 34.0527 31.2206 39.4378C31.5931 40.0914 32.0853 40.2352 32.6973 39.8692C33.4157 39.4771 34.0277 38.4706 34.5333 36.8498L41.8772 21.5179C42.5158 22.7727 43.1011 26.9292 43.6333 33.9874C43.7131 34.85 43.7663 35.582 43.7929 36.1832C43.926 36.8368 43.9925 37.4772 43.9925 38.1046Z" fill="#1E1E1E"/>
</svg>
