<svg width="1251" height="392" viewBox="0 0 1251 392" fill="none" xmlns="http://www.w3.org/2000/svg">
<path d="M1106.81 32.8776C1184.9 35.8004 1245.84 101.477 1242.92 179.571C1240 257.664 1174.32 318.603 1096.23 315.68C1025.81 313.045 835.814 317.435 666.485 355.649C590.255 372.853 514.511 325.002 497.307 248.771C480.103 172.54 527.953 96.7954 604.184 79.5914C804.522 34.3792 1020.46 29.646 1106.81 32.8776Z" fill="#DDCB2C"/>
<path d="M1179.75 161.109C1174.15 157.105 1166.94 155.103 1158.13 155.103C1149.86 155.103 1142.18 156.638 1135.11 159.708C1121.76 165.313 1112.62 172.52 1107.68 181.329C1105.55 185.333 1104.48 189.604 1104.48 194.142C1104.48 194.942 1104.48 197.211 1104.48 200.948C1104.48 204.552 1105.14 209.49 1106.48 215.763C1107.81 221.902 1108.48 228.175 1108.48 234.581C1105.68 234.714 1103.41 235.048 1101.67 235.582C1099.94 236.116 1098.47 236.383 1097.27 236.383C1096.07 236.383 1095 235.849 1094.07 234.781C1093.27 233.713 1092.33 231.645 1091.26 228.575C1091.13 227.774 1090.86 225.505 1090.46 221.768C1090.06 218.032 1089.53 213.494 1088.86 208.155C1088.33 202.817 1087.66 197.011 1086.86 190.738C1086.19 184.332 1085.53 178.059 1084.86 171.92C1083.39 158.574 1082.26 148.764 1081.46 142.491C1081.46 139.288 1083.79 137.686 1088.46 137.686C1091.26 137.686 1093.47 138.888 1095.07 141.29C1096.67 143.559 1097.94 146.228 1098.87 149.298C1099.81 152.234 1100.41 155.17 1100.67 158.106C1101.07 161.043 1101.41 163.111 1101.67 164.312C1119.29 148.564 1141.18 140.689 1167.34 140.689C1170.28 140.689 1173.34 140.756 1176.55 140.89C1177.35 140.756 1178.35 140.689 1179.55 140.689C1180.75 140.689 1181.95 141.49 1183.15 143.092C1184.62 144.96 1185.36 147.229 1185.36 149.898C1185.36 156.572 1183.49 160.309 1179.75 161.109Z" fill="#1E1E1E"/>
<path d="M1011.39 220.167C1023.13 220.167 1040.82 214.828 1064.44 204.151C1065.91 204.151 1067.11 204.685 1068.04 205.753C1068.98 206.687 1069.44 207.822 1069.44 209.156C1064.1 218.232 1053.89 225.305 1038.81 230.377C1023.73 235.449 1009.65 236.316 996.572 232.979C981.758 229.109 972.749 220.768 969.546 207.955C969.279 205.419 969.146 202.016 969.146 197.745C969.146 193.474 970.213 187.869 972.349 180.929C974.618 173.855 978.421 167.182 983.76 160.909C989.098 154.636 995.371 149.698 1002.58 146.095C1009.79 142.491 1017.46 140.689 1025.6 140.689C1033.34 140.689 1042.02 143.359 1051.63 148.697C1056.16 151.233 1059.77 154.102 1062.44 157.306C1065.11 160.509 1066.44 163.779 1066.44 167.115C1066.44 168.049 1066.37 168.984 1066.24 169.918C1065.97 178.059 1062.04 183.198 1054.43 185.333C1051.09 186.267 1047.22 186.734 1042.82 186.734L1013.99 185.533C1004.38 185.533 997.039 187.602 991.968 191.739C989.032 194.008 986.963 197.411 985.762 201.949C989.098 214.094 997.64 220.167 1011.39 220.167ZM1047.02 158.307C1044.09 156.171 1041.02 154.636 1037.81 153.702C1034.61 152.768 1031.94 152.301 1029.8 152.301C1027.67 152.301 1024.2 153.035 1019.39 154.503C1014.59 155.838 1010.32 157.372 1006.58 159.107C997.373 163.378 992.769 167.849 992.769 172.52C1003.45 173.455 1011.45 173.922 1016.79 173.922C1031.61 173.922 1041.62 172.654 1046.82 170.118C1050.02 168.783 1051.63 167.115 1051.63 165.113C1051.63 162.711 1050.09 160.442 1047.02 158.307Z" fill="#1E1E1E"/>
<path d="M900.278 309.654C897.476 315.927 894.139 319.063 890.269 319.063C888.4 319.063 886.999 318.196 886.064 316.461C885.264 314.859 885.264 312.924 886.064 310.655C889.001 298.243 893.205 284.096 898.677 268.214C904.282 252.332 908.019 241.655 909.888 236.183C905.216 231.511 897.876 222.169 887.866 208.155C867.313 179.327 857.036 163.512 857.036 160.709C857.036 160.575 857.103 160.442 857.236 160.309L864.844 152.701C875.387 162.444 889.134 178.993 906.084 202.35C910.355 208.222 913.758 213.16 916.294 217.164C919.097 211.559 921.299 206.754 922.9 202.75C924.502 198.613 925.77 195.343 926.704 192.94C927.772 190.405 929.173 187.068 930.908 182.931C935.446 171.853 941.719 157.773 949.727 140.689C950.928 140.156 952.196 139.889 953.53 139.889C956.867 139.889 959.269 140.756 960.737 142.491C961.271 143.158 961.538 143.959 961.538 144.893C961.538 145.694 961.405 146.495 961.138 147.296L900.278 309.654Z" fill="#1E1E1E"/>
<path d="M787.969 220.167C799.714 220.167 817.397 214.828 841.021 204.151C842.489 204.151 843.69 204.685 844.624 205.753C845.558 206.687 846.025 207.822 846.025 209.156C840.687 218.232 830.477 225.305 815.396 230.377C800.314 235.449 786.234 236.316 773.154 232.979C758.34 229.109 749.331 220.768 746.128 207.955C745.861 205.419 745.728 202.016 745.728 197.745C745.728 193.474 746.795 187.869 748.931 180.929C751.2 173.855 755.003 167.182 760.342 160.909C765.68 154.636 771.953 149.698 779.16 146.095C786.367 142.491 794.041 140.689 802.183 140.689C809.924 140.689 818.599 143.359 828.208 148.697C832.746 151.233 836.349 154.102 839.019 157.306C841.688 160.509 843.022 163.779 843.022 167.115C843.022 168.049 842.956 168.984 842.822 169.918C842.555 178.059 838.618 183.198 831.011 185.333C827.674 186.267 823.804 186.734 819.399 186.734L790.571 185.533C780.962 185.533 773.621 187.602 768.55 191.739C765.614 194.008 763.545 197.411 762.344 201.949C765.68 214.094 774.222 220.167 787.969 220.167ZM823.604 158.307C820.667 156.171 817.598 154.636 814.395 153.702C811.191 152.768 808.522 152.301 806.387 152.301C804.251 152.301 800.781 153.035 795.977 154.503C791.172 155.838 786.901 157.372 783.164 159.107C773.955 163.378 769.351 167.849 769.351 172.52C780.028 173.455 788.035 173.922 793.374 173.922C808.188 173.922 818.198 172.654 823.403 170.118C826.606 168.783 828.208 167.115 828.208 165.113C828.208 162.711 826.673 160.442 823.604 158.307Z" fill="#1E1E1E"/>
<path d="M596.782 200.748L597.583 215.362C597.583 216.163 597.516 217.631 597.383 219.767C597.383 221.902 596.582 223.837 594.98 225.572C593.512 227.174 591.644 227.975 589.375 227.975C587.24 227.975 585.571 227.908 584.37 227.774C579.966 227.774 577.764 225.839 577.764 221.969C577.764 218.766 579.232 205.886 582.168 183.331C585.104 160.642 586.973 146.028 587.773 139.488C588.574 132.949 589.242 127.477 589.775 123.072C590.443 118.534 590.91 115.198 591.177 113.062C591.444 110.927 591.844 108.792 592.378 106.656C592.912 104.521 593.713 102.786 594.78 101.451C596.782 98.9153 600.653 97.6474 606.392 97.6474C616.001 102.452 625.877 116.065 636.021 138.487C643.228 154.503 648.032 164.646 650.435 168.917C652.837 173.188 655.173 176.124 657.441 177.726L697.48 108.058C700.283 106.056 702.419 105.055 703.887 105.055C708.158 105.055 711.427 106.99 713.696 110.86C715.965 114.731 717.834 119.469 719.302 125.074C720.903 130.546 722.238 136.619 723.306 143.292C724.507 149.965 725.508 156.972 726.309 164.312C727.243 171.519 728.11 178.593 728.911 185.533C730.78 202.216 732.181 212.693 733.115 216.964C734.183 221.235 734.717 224.304 734.717 226.173C734.717 227.908 734.116 229.643 732.915 231.378C731.714 232.979 730.046 233.78 727.91 233.78C725.775 233.78 723.639 232.979 721.504 231.378C719.368 229.643 718.034 227.574 717.5 225.172C717.1 222.636 716.632 219.366 716.099 215.362C715.698 211.358 715.164 206.887 714.497 201.949C713.83 196.878 713.162 191.606 712.495 186.134C711.828 180.528 711.16 175.19 710.493 170.118C709.826 165.046 709.225 160.575 708.691 156.705C708.158 152.701 707.757 149.698 707.49 147.696C707.49 145.027 707.424 142.558 707.29 140.289C707.157 138.02 706.623 136.619 705.688 136.085C704.754 135.551 703.286 136.218 701.284 138.087C699.416 139.822 696.746 143.425 693.276 148.897C685.802 160.509 674.992 180.061 660.845 207.555C658.976 210.891 656.507 211.625 653.438 209.757C649.834 207.755 646.764 202.616 644.229 194.342L607.393 116.065C604.189 122.472 601.253 143.692 598.584 179.727C598.184 184.132 597.917 187.869 597.783 190.938C597.116 194.275 596.782 197.545 596.782 200.748Z" fill="#1E1E1E"/>
<path d="M385.176 196.143C385.176 180.395 391.982 167.716 405.596 158.106C416.406 150.499 429.419 145.894 444.634 144.293C445.435 144.293 447.303 144.293 450.239 144.293C453.175 144.293 457.113 145.16 462.051 146.895C472.995 150.632 480.469 157.239 484.473 166.715C486.074 170.452 486.875 173.655 486.875 176.324C486.875 178.86 486.808 180.662 486.675 181.729C486.675 198.412 480.335 211.559 467.656 221.168C455.911 229.977 441.23 234.381 423.613 234.381C410.934 234.381 401.325 231.445 394.785 225.572C388.379 219.7 385.176 209.89 385.176 196.143ZM398.989 200.948C398.989 209.223 401.191 214.828 405.596 217.765C408.932 219.9 414.538 220.968 422.412 220.968C430.286 220.968 437.227 220.367 443.232 219.166C449.238 217.965 454.577 215.896 459.248 212.96C469.258 206.554 474.263 196.611 474.263 183.131C474.263 175.123 472.127 168.583 467.856 163.512C463.185 158.04 457.046 155.304 449.438 155.304C444.233 156.238 438.962 157.239 433.623 158.307C428.418 159.374 423.48 161.443 418.809 164.513C408.665 171.052 402.059 183.198 398.989 200.948Z" fill="white"/>
<path d="M351.543 156.505C351.276 149.298 351.009 142.892 350.742 137.286C350.475 131.547 350.275 127.343 350.142 124.674C350.142 121.871 349.074 115.131 346.938 104.454C348.14 102.852 349.274 101.318 350.342 99.8495C351.543 98.3814 353.211 97.6474 355.347 97.6474C360.018 97.6474 363.621 117.333 366.157 156.705C367.492 179.527 368.159 202.35 368.159 225.172C368.159 231.311 363.888 234.381 355.347 234.381L353.745 234.181C353.745 227.24 353.545 218.365 353.145 207.555C352.744 196.744 352.41 187.335 352.144 179.327C352.01 171.319 351.81 163.712 351.543 156.505Z" fill="white"/>
<path d="M234.028 118.067L233.428 92.2421C233.428 90.1067 234.162 88.4384 235.63 87.2372C237.098 86.0361 238.9 85.4355 241.035 85.4355C243.171 85.4355 245.106 86.0361 246.841 87.2372C248.576 88.305 249.243 89.8398 248.843 91.8417L250.244 178.326C258.652 167.115 269.997 157.706 284.277 150.099C296.156 143.692 306.566 140.489 315.508 140.489C323.382 140.489 329.455 143.025 333.726 148.097C336.929 152.101 338.53 157.439 338.53 164.112C338.53 170.652 337.262 176.391 334.727 181.329C332.324 186.134 329.121 190.805 325.117 195.343C321.113 199.747 316.509 203.884 311.304 207.755C306.099 211.625 300.827 215.095 295.488 218.165C285.345 224.037 275.335 228.909 265.459 232.779C264.658 232.512 263.324 232.446 261.455 232.579C259.587 232.713 257.318 232.779 254.648 232.779C247.441 232.779 241.102 231.912 235.63 230.177C234.295 217.498 233.628 198.212 233.628 172.32L234.028 118.067ZM250.845 216.363C250.845 217.831 252.179 218.565 254.849 218.565C257.651 218.565 261.055 218.032 265.059 216.964C269.062 215.896 273.867 214.094 279.473 211.559C285.212 208.889 290.951 205.486 296.689 201.349C310.036 191.873 320.112 180.728 326.919 167.916C325.184 160.309 319.979 156.505 311.304 156.505C303.429 156.505 294.554 159.441 284.678 165.313C270.664 173.722 260.654 184.132 254.648 196.544C252.113 201.482 250.845 206.487 250.845 211.559C250.845 212.893 250.845 213.961 250.845 214.762C250.845 215.562 250.845 216.096 250.845 216.363Z" fill="white"/>
<path d="M207.202 200.948C197.192 216.697 183.846 226.44 167.163 230.177C163.293 230.977 159.756 231.378 156.553 231.378C153.483 231.378 150.881 231.378 148.745 231.378C146.743 231.244 144.474 230.911 141.938 230.377C139.403 229.843 137.067 228.976 134.932 227.774C129.993 224.972 127.524 221.034 127.524 215.963C126.991 213.56 126.724 210.891 126.724 207.955C126.724 204.885 127.391 200.881 128.726 195.943C130.06 191.005 132.463 185.667 135.933 179.928C139.536 174.189 143.874 168.917 148.945 164.112C159.489 153.969 170.9 147.429 183.179 144.493C186.782 143.692 190.052 143.292 192.988 143.292C196.058 143.292 198.794 143.492 201.196 143.893C208.937 143.893 214.142 149.164 216.812 159.708C218.547 166.381 219.548 175.724 219.814 187.735C220.215 199.614 220.549 208.823 220.815 215.362C221.216 221.768 222.083 227.641 223.418 232.979H211.606C211.073 229.376 210.672 226.173 210.405 223.37C210.138 220.567 209.871 217.965 209.604 215.562C208.937 209.957 208.136 205.086 207.202 200.948ZM206.401 169.918C206.401 162.177 202.598 158.307 194.99 158.307C194.056 158.173 193.122 158.106 192.188 158.106C182.445 158.106 172.168 162.778 161.357 172.12C156.286 176.391 151.948 181.196 148.345 186.534C143.006 194.142 140.337 200.948 140.337 206.954C140.337 214.828 144.875 219.5 153.95 220.968C165.962 220.701 177.44 215.229 188.384 204.552C193.055 199.88 196.925 194.809 199.995 189.337C204.266 181.996 206.401 175.523 206.401 169.918Z" fill="white"/>
<path d="M9.00879 234.581L0 234.181V187.535C0.667318 177.525 1.20117 168.65 1.60156 160.909C2.00195 153.168 2.736 146.495 3.80371 140.89C4.87142 135.284 6.60645 130.613 9.00879 126.876C11.4111 123.005 15.0146 119.936 19.8193 117.667C28.4945 113.396 44.4434 111.261 67.666 111.261C77.6758 111.261 86.1507 112.262 93.0908 114.264C100.031 116.132 105.169 117.934 108.506 119.669C116.113 123.406 119.917 128.611 119.917 135.284C119.917 141.957 117.982 148.03 114.111 153.502C110.374 158.84 105.436 163.512 99.2969 167.516C93.291 171.386 86.4844 174.589 78.877 177.125C71.2695 179.661 63.6621 181.729 56.0547 183.331C42.4414 186 29.362 187.335 16.8164 187.335L16.0156 232.179C16.0156 233.78 13.68 234.581 9.00879 234.581ZM16.6162 164.713C16.6162 171.386 19.4857 174.723 25.2246 174.723C26.0254 174.723 27.4268 174.723 29.4287 174.723C31.4307 174.589 34.9007 174.389 39.8389 174.122C44.9105 173.722 50.249 173.054 55.8545 172.12C61.46 171.052 67.0654 169.718 72.6709 168.116C78.4098 166.515 83.5482 164.513 88.0859 162.11C98.3626 156.505 103.501 149.365 103.501 140.689C101.499 132.014 93.5579 126.476 79.6777 124.073C75.5404 123.272 71.8034 122.872 68.4668 122.872C65.2637 122.872 61.3932 123.072 56.8555 123.473C52.4512 123.74 47.3128 124.74 41.4404 126.476C35.568 128.211 30.6299 130.546 26.626 133.482C22.6221 136.419 20.4199 139.822 20.0195 143.692C19.8861 145.294 19.5524 147.162 19.0186 149.298C17.417 156.104 16.6162 161.243 16.6162 164.713Z" fill="white"/>
</svg>
