<svg width="307" height="293" viewBox="0 0 307 293" fill="none" xmlns="http://www.w3.org/2000/svg">
<path d="M165.818 8.3485C240.312 9.36481 299.878 70.5787 298.862 145.073C297.98 209.734 251.744 263.145 190.836 275.455C130.709 298.847 60.7081 276.255 26.395 219.064C-11.9342 155.179 8.78357 72.3175 72.6687 33.9882C106.701 13.5702 141.878 8.02195 165.818 8.3485ZM162.137 278.118C162.594 278.124 163.042 278.126 163.483 278.127C163.035 278.125 162.587 278.124 162.137 278.118ZM210.439 265.947C210.781 265.747 211.125 265.544 211.471 265.337C211.128 265.542 210.783 265.744 210.439 265.947Z" fill="#DDCB2C"/>
<path d="M205.586 168.348C214.827 166.615 213.094 139.761 202.988 115.795C198.079 101.165 185.72 72.944 175.556 77.102M205.586 168.348C196.346 170.08 180.465 142.36 175.556 129.078C170.647 115.795 162.851 82.2996 175.556 77.102M205.586 168.348C177.137 164.713 147.217 167.393 123.781 170.943M175.556 77.102C152.608 102.201 119.086 120.733 95.0316 132.006M95.0316 132.006C80.3428 138.89 69.1841 143.068 66.1189 144.381C59.1888 147.846 70.1614 180.764 83.444 178.454C86.8713 177.858 93.2015 176.455 101.601 174.814M95.0316 132.006C91.2404 144.381 106.233 172.399 109.854 173.261M109.854 173.261C106.926 173.79 104.167 174.313 101.601 174.814M109.854 173.261C114.156 172.484 118.823 171.694 123.781 170.943M101.601 174.814C103.946 185.962 118.383 224.655 131.377 214.548C144.371 204.442 141.596 199.237 123.781 170.943M221.757 80.5671L212.228 89.2297M225.51 110.02L239.948 104.822M227.632 133.18H242.059" stroke="#1E1E1E" stroke-width="10" stroke-linecap="round"/>
</svg>
