<svg width="307" height="293" viewBox="0 0 307 293" fill="none" xmlns="http://www.w3.org/2000/svg">
<path d="M165.818 8.3485C240.312 9.36481 299.878 70.5787 298.862 145.073C297.98 209.734 251.744 263.145 190.836 275.455C130.709 298.847 60.7081 276.255 26.395 219.064C-11.9342 155.179 8.78357 72.3175 72.6687 33.9882C106.701 13.5702 141.878 8.02195 165.818 8.3485ZM162.137 278.118C162.594 278.124 163.042 278.126 163.483 278.127C163.035 278.125 162.587 278.124 162.137 278.118ZM210.439 265.947C210.781 265.747 211.125 265.544 211.471 265.337C211.128 265.542 210.783 265.744 210.439 265.947Z" fill="#DDCB2C"/>
<path d="M223.596 97.9704C263.555 141.455 218.014 177.007 190.689 204.332C153.081 241.941 151.317 243.116 114.884 204.332C100.935 189.483 42.6051 138.517 77.8634 97.9704C109.575 61.5019 142.061 93.9996 151.136 103.077L151.318 103.259C158.369 96.7951 190.689 62.1592 223.596 97.9704Z" stroke="#1E1E1E" stroke-width="9" stroke-linecap="round"/>
<path d="M204.104 165.994H179.711L168.666 191.307L155.319 122.731L138.75 174.279L126.323 154.948L122.181 165.994H101.931" stroke="#1E1E1E" stroke-width="11" stroke-linecap="round" stroke-linejoin="round"/>
</svg>
