<svg width="307" height="293" viewBox="0 0 307 293" fill="none" xmlns="http://www.w3.org/2000/svg">
<path d="M165.818 8.3485C240.312 9.36481 299.878 70.5787 298.862 145.073C297.98 209.734 251.744 263.145 190.836 275.455C130.709 298.847 60.7081 276.255 26.395 219.064C-11.9342 155.179 8.78357 72.3175 72.6687 33.9882C106.701 13.5702 141.878 8.02195 165.818 8.3485ZM162.137 278.118C162.594 278.124 163.042 278.126 163.483 278.127C163.035 278.125 162.587 278.124 162.137 278.118ZM210.439 265.947C210.781 265.747 211.125 265.544 211.471 265.337C211.128 265.542 210.783 265.744 210.439 265.947Z" fill="#DDCB2C"/>
<path d="M240.723 134.31C249.68 115.115 222.167 78.0044 176.739 78.0044C128.559 78.0044 107.468 109.028 107.468 129.01C107.468 148.992 138.988 173.341 176.739 173.341" stroke="#1E1E1E" stroke-width="10" stroke-linecap="round" stroke-linejoin="round"/>
<path d="M242.07 129.958C226.054 182.19 247.986 168.718 247.353 181.383C246.72 194.048 201.958 180.534 176.018 173.102" stroke="#1E1E1E" stroke-width="10" stroke-linecap="round" stroke-linejoin="round"/>
<path d="M65.3125 162.624C58.9406 148.97 71.0223 126.251 94.8791 114.272M129.296 201.655C147.839 201.655 164.878 195.78 177.417 187.434" stroke="#1E1E1E" stroke-width="10" stroke-linecap="round" stroke-linejoin="round"/>
<path d="M63.9654 158.271C79.9813 210.503 58.049 197.031 58.6823 209.696C59.3155 222.361 104.078 208.848 130.018 201.416" stroke="#1E1E1E" stroke-width="10" stroke-linecap="round" stroke-linejoin="round"/>
</svg>
